<?xml version="1.0" encoding="UTF-8" standalone="no"?>
<svg width="157px" height="16px" viewBox="0 0 157 16" version="1.1" xmlns="http://www.w3.org/2000/svg" xmlns:xlink="http://www.w3.org/1999/xlink" xmlns:sketch="http://www.bohemiancoding.com/sketch/ns">
    <title>Artboard 1</title>
    <description>Created with Sketch (http://www.bohemiancoding.com/sketch)</description>
    <defs></defs>
    <g id="Page 1" stroke="none" stroke-width="1" fill="none" fill-rule="evenodd">
        <g id="Artboard 1" fill="#000000">
            <g id="Layer_1" transform="translate(1.000000, 0.000000)">
                <g id="Page_1">
                    <g id="logo">
                        <g id="Layer_1_1_">
                            <path d="M32.4895423,0.388103446 C34.3950403,0.388103446 36.0232677,1.31851912 37.0927401,2.38630595 L34.9074431,4.85140182 C34.1632791,4.20078507 33.5118196,3.82912446 32.5367373,3.82912446 C30.7231009,3.82912446 29.1892635,5.45650912 29.1892635,8.19971838 C29.1892635,11.0356321 30.4913398,12.6158218 32.44319,12.6158218 C33.6053668,12.6158218 34.4422353,12.1042617 35.0936948,11.4072927 L37.278149,13.8251936 C35.9996702,15.3135216 34.2559836,16.056 32.3968378,16.056 C28.4442567,16.056 25.0967829,13.4998852 25.0967829,8.33877507 C25.0959402,3.27036939 28.5841562,0.388103446 32.4895423,0.388103446 L32.4895423,0.388103446 L32.4895423,0.388103446 Z M32.4895423,0.388103446" id="Shape"></path>
                            <path d="M40.5590441,0.678858344 L44.5571347,0.678858344 L44.5571347,6.30433355 L49.0667853,6.30433355 L49.0667853,0.678858344 L53.0657186,0.678858344 L53.0657186,15.7896854 L49.0676281,15.7896854 L49.0676281,9.79086402 L44.5579774,9.79086402 L44.5579774,15.7896854 L40.5598869,15.7896854 L40.5590441,0.678858344 L40.5590441,0.678858344 Z M40.5590441,0.678858344" id="Shape_1_"></path>
                            <path d="M57.0494821,8.15252338 C57.0494821,3.1785077 59.8853958,0.388103446 64.0705808,0.388103446 C68.254923,0.388103446 71.0916795,3.20041966 71.0916795,8.15252338 C71.0916795,13.1265391 68.254923,16.056 64.0705808,16.056 C59.8853958,16.056 57.0494821,13.1265391 57.0494821,8.15252338 L57.0494821,8.15252338 L57.0494821,8.15252338 Z M66.9983562,8.15252338 C66.9983562,5.40931412 65.8825316,3.82912446 64.0688953,3.82912446 C62.2552589,3.82912446 61.1394343,5.41015689 61.1394343,8.15252338 C61.1394343,10.8948899 62.2552589,12.6158218 64.0688953,12.6158218 C65.8825316,12.6158218 66.9983562,10.8948899 66.9983562,8.15252338 L66.9983562,8.15252338 L66.9983562,8.15252338 Z M66.9983562,8.15252338" id="Shape_2_"></path>
                            <path d="M75.0290908,0.666216827 L80.8880127,0.666216827 C84.1419392,0.666216827 86.9315007,1.87558865 86.9315007,5.6874275 C86.9315007,9.38464993 84.0492348,10.9875943 80.8880127,10.9875943 L79.0271813,10.9875943 L79.0271813,15.7770439 L75.0290908,15.7770439 L75.0290908,0.666216827 L75.0290908,0.666216827 Z M80.701761,7.827215 C82.2819506,7.827215 83.0261146,7.03669878 83.0261146,5.6874275 C83.0261146,4.33984176 82.1884034,3.82828169 80.701761,3.82828169 L79.0280241,3.82828169 L79.0280241,7.827215 L80.701761,7.827215 L80.701761,7.827215 L80.701761,7.827215 Z M80.701761,7.827215" id="Shape_3_"></path>
                            <path d="M91.9341705,11.1502485 C93.0028001,12.0107145 94.3520714,12.614979 95.4670532,12.614979 C96.676425,12.614979 97.1871423,12.2197209 97.1871423,11.5455066 C97.1871423,10.8249401 96.4185381,10.5914935 95.140902,10.0799334 L93.2581587,9.2911027 C91.6307741,8.63880041 90.2123958,7.26845993 90.2123958,5.08316298 C90.2123958,2.50260791 92.5367495,0.386417911 95.837871,0.386417911 C97.5588029,0.386417911 99.4659865,1.03787744 100.859082,2.40906068 L98.8608792,4.91882325 C97.8360735,4.19825676 96.9528529,3.82743892 95.837871,3.82743892 C94.8619459,3.82743892 94.2576814,4.1763448 94.2576814,4.84971629 C94.2576814,5.57028278 95.1181473,5.82564143 96.4884878,6.36079899 L98.3257216,7.08136548 C100.207622,7.82552946 101.277095,9.12760575 101.277095,11.2193555 C101.277095,13.7754703 99.1381498,16.0534717 95.373506,16.0534717 C93.4654796,16.0534717 91.2810254,15.3565027 89.6544835,13.8934578 L91.9341705,11.1502485 L91.9341705,11.1502485 Z M91.9341705,11.1502485" id="Shape_4_"></path>
                            <path d="M107.959401,4.01369061 L103.960467,4.01369061 L103.960467,0.666216827 L115.956424,0.666216827 L115.956424,4.01369061 L111.957491,4.01369061 L111.957491,15.7770439 L107.959401,15.7770439 L107.959401,4.01369061 L107.959401,4.01369061 Z M107.959401,4.01369061" id="Shape_5_"></path>
                            <path d="M119.2862,0.666216827 L123.284291,0.666216827 L123.284291,15.7778866 L119.2862,15.7778866 L119.2862,0.666216827 L119.2862,0.666216827 Z M119.2862,0.666216827" id="Shape_6_"></path>
                            <path d="M134.564738,0.388103446 C136.471079,0.388103446 138.096778,1.31851912 139.168779,2.38630595 L136.981796,4.85140182 C136.238475,4.20078507 135.587858,3.82912446 134.61109,3.82912446 C132.799139,3.82912446 131.262774,5.45650912 131.262774,8.19971838 C131.262774,11.0356321 132.56485,12.6158218 134.518386,12.6158218 C135.681405,12.6158218 136.516588,12.1042617 137.16889,11.4072927 L139.354187,13.8251936 C138.074866,15.3135216 136.332865,16.056 134.472876,16.056 C130.521138,16.056 127.172821,13.4998852 127.172821,8.33877507 C127.171136,3.27036939 130.659352,0.388103446 134.564738,0.388103446 L134.564738,0.388103446 L134.564738,0.388103446 Z M134.564738,0.388103446" id="Shape_7_"></path>
                            <path d="M142.633397,0.666216827 L146.63233,0.666216827 L146.63233,6.29169203 L146.725035,6.29169203 L150.536874,0.666216827 L154.90831,0.666216827 L150.397817,6.80409486 L155.790688,15.7762011 L151.420094,15.7762011 L148.071778,9.96447419 L146.630645,12.0090289 L146.630645,15.7762011 L142.631712,15.7762011 L142.631712,0.666216827 L142.633397,0.666216827 L142.633397,0.666216827 Z M142.633397,0.666216827" id="Shape_8_"></path>
                            <path d="M19.354163,0.678858344 L15.3560725,0.678858344 L8.55493615,15.7905281 L12.5530267,15.7905281 L19.354163,0.678858344 L19.354163,0.678858344 Z M19.354163,0.678858344" id="Shape_9_"></path>
                            <path d="M10.7992269,0.678858344 L6.80197908,0.678858344 L0,15.7896854 L3.99809054,15.7896854 L10.7992269,0.678858344 L10.7992269,0.678858344 Z M10.7992269,0.678858344" id="Shape_10_"></path>
                        </g>
                    </g>
                </g>
            </g>
        </g>
    </g>
</svg>