<?xml version="1.0" encoding="UTF-8" standalone="no"?>
<svg width="16px" height="90px" viewBox="0 0 16 90" version="1.1" xmlns="http://www.w3.org/2000/svg" xmlns:xlink="http://www.w3.org/1999/xlink" xmlns:sketch="http://www.bohemiancoding.com/sketch/ns">
    <!-- Generator: Sketch 3.3.2 (12043) - http://www.bohemiancoding.com/sketch -->
    <title>toggle--sprite</title>
    <desc>Created with Sketch.</desc>
    <defs></defs>
    <g id="Page-1" stroke="none" stroke-width="1" fill="none" fill-rule="evenodd" sketch:type="MSPage">
        <g id="toggle--sprite" sketch:type="MSArtboardGroup" fill="#0066C0">
            <path d="M5.41164266,51 C5.45045089,51 5.49249251,51.0173308 5.53776878,51.0519931 L9.55440062,55.3570189 C9.63848512,55.4471407 9.63848512,55.5372611 9.55440062,55.6273828 L5.53776878,59.9324087 C5.45368428,60.0225304 5.36960104,60.0225304 5.28551654,59.9324087 L4.06306338,58.6221834 C3.97897887,58.5320617 3.97897887,58.4419412 4.06306338,58.3518195 L6.73111592,55.4922009 L4.06306338,52.6325823 C3.97897887,52.5424605 3.97897887,52.4523401 4.06306338,52.3622183 L5.28551654,51.0519931 C5.33079281,51.0173308 5.37283443,51 5.41164266,51 L5.41164266,51 Z" id="toggle--down" sketch:type="MSShapeGroup" transform="translate(7.500000, 55.500000) rotate(90.000000) translate(-7.500000, -55.500000) "></path>
            <path d="M6.41164266,4 C6.45045089,4 6.49249251,4.01733085 6.53776878,4.05199307 L10.5544006,8.3570189 C10.6384851,8.44714066 10.6384851,8.53726108 10.5544006,8.62738284 L6.53776878,12.9324087 C6.45368428,13.0225304 6.36960104,13.0225304 6.28551654,12.9324087 L5.06306338,11.6221834 C4.97897887,11.5320617 4.97897887,11.4419412 5.06306338,11.3518195 L7.73111592,8.49220087 L5.06306338,5.63258226 C4.97897887,5.5424605 4.97897887,5.45234008 5.06306338,5.36221832 L6.28551654,4.05199307 C6.33079281,4.01733085 6.37283443,4 6.41164266,4 L6.41164266,4 Z" id="toggle--right" sketch:type="MSShapeGroup"></path>
        </g>
    </g>
</svg>